<svg xmlns="http://www.w3.org/2000/svg" xmlns:xlink="http://www.w3.org/1999/xlink" width="1080" zoomAndPan="magnify" viewBox="0 0 810 529.499989" height="706" preserveAspectRatio="xMidYMid meet" version="1.0"><defs><clipPath id="8e8efcc9b6"><path d="M 771 490 L 808 490 L 808 522.820312 L 771 522.820312 Z M 771 490 " clip-rule="nonzero"/></clipPath></defs><path fill="#ffc861" d="M 83.53125 164.285156 C 91.691406 173.09375 99.851562 187.664062 114.253906 184.621094 C 125.453125 182.058594 126.574219 170.210938 123.214844 160.921875 C 117.453125 145.390625 103.210938 138.664062 90.410156 129.855469 C 73.929688 118.488281 54.085938 103.914062 50.566406 85.339844 C 45.605469 58.597656 14.5625 61 5.921875 91.265625 C 0.640625 109.839844 9.921875 130.015625 28.484375 143.949219 C 44.964844 156.4375 68.808594 148.273438 83.53125 164.285156 Z M 83.53125 164.285156 " fill-opacity="1" fill-rule="nonzero"/><path fill="#ffc861" d="M 177.140625 242.429688 C 159.21875 248.355469 177.777344 276.539062 191.859375 267.890625 C 203.703125 258.28125 190.738281 238.746094 177.140625 242.429688 Z M 177.140625 242.429688 " fill-opacity="1" fill-rule="nonzero"/><path fill="#ffc861" d="M 772.394531 441.152344 C 770.472656 426.417969 754.472656 417.773438 741.992188 412.96875 C 721.667969 404.960938 702.148438 409.445312 681.1875 407.363281 C 657.664062 405.121094 638.140625 389.109375 613.820312 390.390625 C 605.820312 390.871094 591.578125 393.433594 578.9375 404 C 569.976562 411.367188 564.054688 424.820312 574.777344 433.464844 C 588.21875 444.195312 605.980469 447.878906 622.78125 447.238281 C 633.339844 446.757812 643.902344 444.996094 654.625 445.476562 C 666.945312 445.957031 678.464844 449.640625 689.988281 453.480469 C 706.628906 459.085938 777.835938 481.34375 772.394531 441.152344 Z M 772.394531 441.152344 " fill-opacity="1" fill-rule="nonzero"/><g clip-path="url(#8e8efcc9b6)"><path fill="#ffc861" d="M 803.117188 498.480469 C 795.4375 489.671875 778.792969 485.667969 772.714844 498.480469 C 769.355469 505.363281 771.914062 511.289062 776.554688 515.613281 C 781.035156 519.9375 788.394531 522.820312 794.796875 522.5 C 799.917969 522.339844 805.035156 519.457031 806.957031 514.492188 C 809.359375 508.886719 806.796875 502.800781 803.117188 498.480469 Z M 803.117188 498.480469 " fill-opacity="1" fill-rule="nonzero"/></g><path fill="#edd9ca" d="M 284.027344 235.382812 C 274.429688 235.542969 261.945312 236.824219 261.945312 236.824219 C 268.988281 238.585938 275.226562 246.113281 285.148438 246.113281 Z M 284.027344 235.382812 " fill-opacity="1" fill-rule="nonzero"/><path fill="#b3543b" d="M 311.710938 90.304688 L 367.238281 90.304688 L 367.238281 117.046875 L 311.710938 117.046875 Z M 311.710938 90.304688 " fill-opacity="1" fill-rule="nonzero"/><path fill="#f4856e" d="M 461.644531 367.972656 C 453.644531 367.8125 445.964844 370.375 438.125 367.171875 C 432.523438 364.769531 426.601562 361.085938 420.363281 363.808594 C 417.960938 364.929688 415.722656 366.691406 414.441406 369.09375 C 412.359375 372.617188 412.359375 376.617188 409.480469 379.660156 C 404.359375 384.945312 397 386.226562 390.117188 388.628906 C 387.238281 389.109375 384.359375 389.589844 381.316406 390.230469 L 401 407.523438 C 408.679688 403.679688 416.679688 400.480469 425.160156 398.558594 C 432.84375 396.796875 440.523438 396.15625 448.203125 394.875 C 454.605469 393.753906 460.683594 391.511719 466.925781 390.070312 C 470.285156 389.269531 473.964844 388.789062 477.488281 389.429688 C 479.246094 389.910156 482.605469 392.3125 484.527344 391.351562 C 486.609375 390.390625 485.808594 387.667969 485.007812 386.066406 C 484.207031 384.464844 482.925781 383.023438 481.328125 382.0625 C 481.167969 381.582031 481.007812 381.261719 480.847656 380.78125 C 480.367188 379.980469 479.726562 379.5 478.925781 379.019531 C 479.085938 378.378906 478.925781 377.898438 478.765625 377.257812 C 478.125 375.820312 476.847656 375.179688 475.566406 374.699219 C 472.847656 369.734375 467.085938 367.972656 461.644531 367.972656 Z M 461.644531 367.972656 " fill-opacity="1" fill-rule="nonzero"/><path fill="#ffa18a" d="M 644.0625 503.441406 C 643.421875 501.679688 641.820312 500.71875 640.542969 499.28125 C 638.78125 497.359375 637.980469 494.636719 636.222656 492.554688 C 633.019531 488.550781 628.539062 487.269531 623.898438 485.667969 C 618.140625 483.585938 613.019531 480.382812 608.058594 477.179688 C 605.179688 475.261719 602.136719 473.339844 600.21875 470.457031 C 598.9375 468.535156 597.976562 466.292969 596.699219 464.371094 C 594.457031 460.847656 591.257812 458.445312 586.777344 459.085938 C 582.9375 459.566406 579.574219 461.96875 577.175781 464.851562 C 575.574219 466.773438 575.097656 468.214844 572.535156 469.015625 C 571.09375 469.496094 569.496094 469.65625 568.054688 469.816406 C 565.816406 470.136719 563.414062 470.457031 561.175781 470.617188 C 555.734375 470.777344 550.292969 470.296875 545.011719 469.816406 L 545.011719 498.320312 C 550.292969 498.320312 555.734375 498.320312 561.015625 498.640625 C 569.015625 498.480469 576.855469 498.480469 584.855469 499.601562 C 593.65625 500.882812 601.65625 504.5625 610.300781 506.484375 C 614.300781 507.285156 618.460938 507.445312 622.300781 508.40625 C 626.941406 509.527344 630.300781 512.570312 634.300781 514.8125 C 635.902344 515.613281 638.140625 516.414062 639.902344 514.972656 C 640.703125 514.332031 641.023438 513.53125 641.023438 512.730469 C 641.820312 512.570312 642.621094 512.089844 643.101562 511.449219 C 643.582031 510.648438 643.582031 509.6875 643.261719 508.726562 C 643.101562 508.40625 642.941406 508.246094 642.78125 507.925781 C 644.0625 506.964844 644.703125 505.203125 644.0625 503.441406 Z M 644.0625 503.441406 " fill-opacity="1" fill-rule="nonzero"/><path fill="#ffa18a" d="M 521.171875 320.414062 C 522.929688 319.773438 522.929688 318.011719 521.972656 317.050781 C 519.890625 315.128906 514.128906 313.367188 510.929688 311.765625 C 505.808594 309.203125 502.609375 306.480469 499.25 302.636719 C 495.726562 298.636719 487.085938 289.667969 485.648438 288.226562 C 461.164062 254.597656 436.203125 222.414062 423.082031 212.964844 C 416.042969 207.839844 407.238281 192.628906 402.28125 185.582031 C 402.28125 185.582031 391.878906 188.945312 377.636719 198.394531 C 383.878906 205.757812 388.039062 213.125 392.039062 221.933594 C 395.558594 229.777344 399.878906 236.34375 406.441406 241.949219 C 412.679688 247.234375 419.722656 251.71875 426.28125 256.519531 C 434.28125 262.445312 464.683594 290.628906 470.765625 296.394531 C 472.207031 302.316406 476.6875 311.605469 481.328125 314.96875 C 483.085938 316.25 483.40625 319.292969 484.046875 321.214844 C 484.6875 322.976562 485.328125 324.738281 485.96875 326.660156 C 486.449219 327.9375 492.367188 338.988281 494.609375 334.34375 C 494.929688 333.542969 494.609375 332.582031 494.289062 331.78125 C 493.488281 329.859375 492.527344 328.097656 491.726562 326.179688 C 490.769531 323.457031 490.128906 320.574219 489.96875 317.53125 C 493.488281 321.695312 494.609375 327.136719 496.6875 332.101562 C 497.808594 334.503906 499.089844 336.90625 501.167969 338.667969 C 502.449219 339.789062 504.6875 340.589844 505.808594 338.988281 C 506.609375 340.269531 507.890625 341.230469 509.167969 341.230469 C 511.570312 341.230469 510.769531 338.1875 510.449219 336.746094 C 509.808594 334.023438 508.53125 331.621094 507.730469 329.058594 C 506.929688 326.5 506.449219 323.9375 506.289062 321.375 C 507.410156 321.695312 508.53125 322.175781 509.328125 322.976562 C 510.449219 323.9375 511.089844 325.21875 511.890625 326.5 C 513.488281 329.058594 515.410156 331.460938 517.332031 333.703125 C 517.96875 334.503906 518.929688 335.464844 520.050781 335.464844 C 521.011719 335.464844 521.8125 334.984375 521.972656 334.023438 C 522.289062 332.902344 521.332031 331.78125 520.691406 330.820312 C 519.890625 329.539062 519.25 328.257812 518.769531 326.980469 C 517.808594 324.898438 516.851562 322.65625 515.410156 320.894531 C 517.171875 321.214844 519.410156 321.054688 521.171875 320.414062 Z M 521.171875 320.414062 " fill-opacity="1" fill-rule="nonzero"/><path fill="#ffa18a" d="M 231.0625 152.917969 C 219.863281 154.515625 206.902344 154.355469 198.101562 157.078125 C 179.859375 136.582031 162.257812 118.328125 144.816406 97.03125 C 144.496094 94.628906 142.414062 87.261719 141.296875 85.019531 C 138.734375 79.734375 134.734375 75.253906 132.816406 69.648438 C 132.175781 67.566406 131.695312 64.042969 130.09375 62.441406 C 128.972656 61.320312 127.855469 61.960938 127.375 63.242188 C 124.972656 69.488281 129.773438 76.054688 129.132812 81.65625 C 126.734375 77.816406 121.773438 71.570312 119.855469 69.96875 C 117.933594 68.527344 110.414062 62.921875 108.171875 61.480469 C 106.890625 60.679688 105.773438 59.878906 104.492188 59.078125 C 103.691406 58.4375 102.570312 57.636719 101.613281 57.636719 C 100.332031 57.476562 99.210938 58.4375 99.53125 59.878906 C 100.011719 61.960938 102.410156 63.242188 103.851562 64.523438 C 105.613281 65.964844 107.210938 67.726562 108.652344 69.488281 C 107.050781 68.046875 105.132812 67.085938 103.371094 65.964844 C 101.292969 64.683594 99.050781 63.5625 96.8125 62.441406 C 95.371094 61.800781 93.292969 60.679688 91.691406 61.320312 C 90.25 61.960938 90.730469 63.5625 91.371094 64.683594 C 92.332031 66.285156 94.089844 67.085938 95.53125 68.046875 C 97.453125 69.167969 99.371094 70.449219 101.132812 71.890625 C 103.210938 73.652344 105.132812 75.574219 106.890625 77.65625 C 105.933594 76.855469 104.8125 76.054688 103.691406 75.253906 C 101.773438 73.8125 99.691406 72.53125 97.613281 71.25 C 95.691406 69.96875 93.769531 68.367188 91.851562 67.566406 C 90.570312 67.085938 88.8125 67.085938 88.652344 68.6875 C 88.332031 70.449219 90.089844 72.050781 91.050781 73.332031 C 93.929688 76.375 97.613281 78.617188 100.972656 81.175781 C 104.652344 84.058594 107.691406 87.421875 110.574219 90.945312 C 105.613281 88.222656 100.171875 86.621094 94.730469 85.339844 C 93.292969 85.019531 89.609375 83.738281 89.929688 86.460938 C 90.089844 88.703125 93.449219 90.304688 95.371094 91.265625 C 98.730469 92.867188 102.410156 93.988281 105.773438 95.589844 C 108.972656 97.191406 111.054688 100.554688 113.933594 102.796875 C 118.253906 106.15625 128.335938 110.160156 128.335938 110.160156 C 141.457031 124.574219 172.820312 172.292969 178.578125 179.175781 C 184.019531 185.582031 188.980469 189.425781 200.179688 188.304688 C 210.421875 187.34375 221.144531 184.78125 231.0625 182.859375 Z M 231.0625 152.917969 " fill-opacity="1" fill-rule="nonzero"/><path fill="#ffa18a" d="M 291.871094 301.519531 C 291.871094 301.519531 303.710938 311.765625 329.472656 303.277344 C 358.753906 293.671875 361.957031 265.007812 361.957031 265.007812 C 360.835938 259.882812 358.914062 250.117188 358.117188 244.832031 C 358.117188 244.671875 270.746094 232.339844 270.746094 232.339844 C 272.988281 237.945312 283.230469 257.960938 284.988281 266.128906 C 286.429688 272.535156 287.390625 294.472656 291.871094 301.519531 Z M 291.871094 301.519531 " fill-opacity="1" fill-rule="nonzero"/><path fill="#fff3e5" d="M 408.519531 187.824219 C 401.480469 179.015625 395.71875 169.25 391.558594 158.839844 C 387.558594 149.074219 385.15625 138.34375 379.558594 129.214844 C 375.398438 122.332031 369.15625 116.085938 361.15625 113.683594 C 350.753906 110.640625 333.3125 114.324219 326.433594 116.246094 L 272.988281 126.335938 C 264.828125 127.9375 255.226562 135.140625 248.34375 138.984375 C 232.503906 147.953125 207.0625 154.195312 207.0625 154.195312 C 212.183594 177.417969 224.183594 206.878906 224.183594 206.878906 C 235.703125 206.078125 256.984375 197.914062 256.984375 197.914062 C 256.1875 212.804688 261.945312 236.824219 261.945312 236.824219 C 267.066406 237.144531 277.949219 236.824219 283.070312 236.984375 C 288.828125 236.984375 294.429688 237.464844 300.03125 238.746094 C 310.589844 240.988281 319.710938 246.59375 329.152344 251.398438 C 338.914062 256.359375 349.476562 260.363281 360.515625 258.441406 C 360.035156 241.308594 360.355469 224.175781 361.316406 207.039062 C 368.355469 205.277344 377.796875 205.597656 385.476562 202.238281 C 400.519531 195.671875 408.519531 187.664062 408.519531 187.824219 Z M 408.519531 187.824219 " fill-opacity="1" fill-rule="nonzero"/><path fill="#fc5842" d="M 554.773438 456.523438 C 554.773438 456.523438 487.566406 444.035156 466.125 446.4375 C 460.207031 435.226562 452.363281 424.820312 446.605469 413.449219 C 433.164062 386.867188 412.519531 334.503906 411.71875 331.78125 C 406.28125 314.488281 396.839844 299.757812 384.519531 286.785156 C 377.476562 279.257812 369.796875 272.214844 361.957031 265.167969 C 349.316406 270.773438 338.113281 278.9375 328.992188 289.347656 C 324.191406 294.792969 319.710938 300.71875 313.152344 304.078125 C 306.589844 307.441406 292.988281 301.839844 291.871094 301.519531 C 291.710938 302.796875 292.507812 326.5 286.269531 336.90625 C 280.347656 346.835938 272.667969 355.960938 264.347656 363.96875 C 249.464844 378.378906 231.222656 389.429688 218.421875 406.082031 C 212.664062 413.449219 207.222656 427.539062 211.0625 436.828125 C 222.742188 465.171875 262.425781 460.6875 290.589844 454.28125 C 304.03125 451.242188 316.832031 446.277344 329.792969 441.792969 C 343.554688 437.148438 364.675781 430.421875 378.4375 425.78125 C 383.078125 431.703125 387.878906 437.628906 392.519531 443.714844 C 402.917969 456.84375 412.839844 470.457031 423.882812 483.105469 C 433.644531 494.316406 445.164062 502.480469 460.046875 504.402344 C 487.246094 507.765625 535.890625 502 565.335938 508.886719 C 565.496094 508.886719 561.972656 469.816406 554.773438 456.523438 Z M 554.773438 456.523438 " fill-opacity="1" fill-rule="nonzero"/><path fill="#e8452e" d="M 377.957031 423.859375 C 359.074219 399.679688 342.914062 373.578125 329.953125 345.875 C 329.632812 345.234375 328.671875 345.714844 328.992188 346.515625 C 341.953125 374.378906 358.117188 400.640625 377.15625 424.820312 C 377.636719 425.300781 378.4375 424.5 377.957031 423.859375 Z M 377.957031 423.859375 " fill-opacity="1" fill-rule="nonzero"/><path fill="#e8452e" d="M 355.394531 395.035156 C 343.394531 407.042969 327.394531 413.929688 311.871094 420.015625 C 295.390625 426.257812 278.589844 431.222656 261.308594 434.90625 C 260.667969 435.066406 260.828125 436.1875 261.625 436.027344 C 279.546875 432.34375 297.148438 427.058594 314.113281 420.335938 C 329.152344 414.410156 344.515625 407.523438 356.195312 395.835938 C 356.835938 395.355469 356.035156 394.554688 355.394531 395.035156 Z M 355.394531 395.035156 " fill-opacity="1" fill-rule="nonzero"/><path fill="#e8452e" d="M 340.355469 290.628906 C 351.074219 303.277344 364.195312 315.128906 381.476562 317.210938 C 382.277344 317.371094 382.117188 316.089844 381.476562 316.089844 C 364.675781 314.167969 351.714844 302.160156 341.152344 289.828125 C 340.675781 289.1875 339.875 289.988281 340.355469 290.628906 Z M 340.355469 290.628906 " fill-opacity="1" fill-rule="nonzero"/><path fill="#e8452e" d="M 311.871094 306.800781 C 315.550781 317.53125 319.710938 328.097656 324.671875 338.347656 C 324.992188 338.988281 325.953125 338.507812 325.632812 337.707031 C 320.671875 327.457031 316.511719 317.050781 312.992188 306.320312 C 312.832031 305.679688 311.710938 306 311.871094 306.800781 Z M 311.871094 306.800781 " fill-opacity="1" fill-rule="nonzero"/><path fill="#e8452e" d="M 317.792969 302.316406 C 322.914062 317.371094 332.992188 330.820312 334.433594 346.835938 C 334.433594 347.636719 335.714844 347.636719 335.554688 346.835938 C 334.113281 330.5 324.03125 317.050781 318.753906 302 C 318.753906 301.359375 317.632812 301.679688 317.792969 302.316406 Z M 317.792969 302.316406 " fill-opacity="1" fill-rule="nonzero"/><path fill="#e8452e" d="M 297.949219 306.480469 C 297.46875 313.847656 295.230469 321.054688 291.550781 327.617188 C 291.230469 328.257812 292.191406 328.898438 292.507812 328.257812 C 296.351562 321.695312 298.589844 314.167969 299.070312 306.640625 C 299.230469 305.679688 298.109375 305.679688 297.949219 306.480469 Z M 297.949219 306.480469 " fill-opacity="1" fill-rule="nonzero"/><path fill="#e8452e" d="M 465.804688 447.238281 C 468.046875 452.679688 468.367188 458.765625 466.765625 464.371094 C 466.605469 465.011719 467.726562 465.332031 467.886719 464.691406 C 469.484375 458.925781 469.164062 452.519531 466.925781 446.917969 C 466.605469 446.277344 465.484375 446.597656 465.804688 447.238281 Z M 465.804688 447.238281 " fill-opacity="1" fill-rule="nonzero"/><path fill="#e8452e" d="M 540.851562 455.402344 C 545.332031 471.578125 547.734375 488.230469 547.894531 505.042969 C 547.894531 505.84375 549.011719 505.84375 549.011719 505.042969 C 548.851562 488.230469 546.453125 471.417969 541.972656 455.082031 C 541.8125 454.441406 540.691406 454.601562 540.851562 455.402344 Z M 540.851562 455.402344 " fill-opacity="1" fill-rule="nonzero"/><path fill="#e8452e" d="M 294.109375 426.257812 C 287.390625 432.984375 278.429688 437.308594 269.949219 441.152344 C 269.308594 441.472656 269.789062 442.433594 270.585938 442.113281 C 279.226562 438.269531 288.347656 433.945312 295.070312 427.058594 C 295.550781 426.578125 294.75 425.78125 294.109375 426.257812 Z M 294.109375 426.257812 " fill-opacity="1" fill-rule="nonzero"/><path fill="#ff7a5a" d="M 303.871094 275.417969 C 304.03125 277.019531 303.710938 278.296875 303.230469 278.457031 C 302.589844 278.617188 301.949219 277.339844 301.789062 275.738281 C 301.628906 274.136719 301.949219 272.855469 302.429688 272.695312 C 303.070312 272.695312 303.710938 273.816406 303.871094 275.417969 Z M 303.871094 275.417969 " fill-opacity="1" fill-rule="nonzero"/><path fill="#edd9ca" d="M 257.304688 197.433594 C 256.027344 182.378906 256.027344 167.167969 256.984375 152.117188 C 256.984375 151.316406 255.867188 151.316406 255.867188 152.117188 C 254.90625 167.167969 254.90625 182.378906 256.1875 197.433594 C 256.1875 198.234375 257.304688 198.234375 257.304688 197.433594 Z M 257.304688 197.433594 " fill-opacity="1" fill-rule="nonzero"/><path fill="#edd9ca" d="M 337.3125 125.855469 C 328.992188 153.714844 342.113281 182.378906 341.152344 210.5625 C 341.152344 211.363281 342.273438 211.363281 342.273438 210.5625 C 343.234375 182.378906 330.113281 154.035156 338.433594 126.175781 C 338.59375 125.535156 337.472656 125.214844 337.3125 125.855469 Z M 337.3125 125.855469 " fill-opacity="1" fill-rule="nonzero"/><path fill="#edd9ca" d="M 360.996094 206.878906 C 354.433594 207.679688 347.875 208.640625 341.472656 210.082031 C 340.835938 210.242188 340.992188 211.363281 341.792969 211.203125 C 348.035156 209.761719 354.59375 208.800781 360.996094 208 C 361.636719 207.839844 361.796875 206.71875 360.996094 206.878906 Z M 360.996094 206.878906 " fill-opacity="1" fill-rule="nonzero"/><path fill="#ff7a5a" d="M 642.300781 507.605469 C 641.660156 507.765625 641.183594 507.605469 640.542969 507.285156 C 640.0625 506.964844 639.582031 506.484375 639.421875 506.003906 C 639.101562 505.363281 638.78125 504.882812 638.621094 504.242188 C 638.300781 503.601562 637.820312 502.960938 637.5 502.320312 C 637.179688 501.839844 636.382812 502.320312 636.703125 502.800781 C 637.179688 503.441406 637.5 504.082031 637.980469 504.882812 C 638.300781 505.523438 638.621094 506.164062 638.941406 506.804688 C 639.742188 508.085938 641.183594 508.726562 642.621094 508.40625 C 642.78125 508.40625 642.941406 508.085938 642.941406 507.925781 C 642.78125 507.605469 642.621094 507.605469 642.300781 507.605469 Z M 642.300781 507.605469 " fill-opacity="1" fill-rule="nonzero"/><path fill="#ff7a5a" d="M 640.542969 512.25 C 638.941406 512.089844 637.660156 511.289062 636.863281 510.007812 C 636.222656 508.726562 635.742188 507.445312 634.621094 506.484375 C 634.460938 506.324219 634.140625 506.324219 633.980469 506.484375 C 633.820312 506.644531 633.820312 506.964844 633.980469 507.125 C 635.101562 508.085938 635.421875 509.527344 636.222656 510.808594 C 637.179688 512.25 638.621094 512.890625 640.222656 513.210938 C 640.382812 513.210938 640.703125 513.210938 640.703125 512.890625 C 641.023438 512.570312 640.863281 512.410156 640.542969 512.25 Z M 640.542969 512.25 " fill-opacity="1" fill-rule="nonzero"/><path fill="#ff7a5a" d="M 515.410156 320.894531 C 512.210938 320.253906 509.167969 319.132812 506.449219 317.691406 C 503.730469 316.25 501.488281 314.648438 498.449219 314.167969 C 495.410156 313.6875 492.6875 313.046875 490.128906 311.605469 C 487.40625 310.164062 485.167969 308.242188 483.40625 305.679688 C 483.085938 305.199219 482.285156 305.679688 482.605469 306.160156 C 485.96875 310.644531 490.929688 313.6875 496.527344 314.648438 C 498.289062 314.96875 500.207031 315.128906 501.808594 315.929688 C 503.25 316.570312 504.6875 317.691406 506.128906 318.332031 C 509.007812 319.933594 512.210938 320.894531 515.410156 321.695312 C 515.730469 321.855469 515.890625 321.054688 515.410156 320.894531 Z M 515.410156 320.894531 " fill-opacity="1" fill-rule="nonzero"/><path fill="#ff7a5a" d="M 506.128906 338.507812 C 504.050781 334.664062 502.449219 330.5 501.007812 326.339844 C 500.367188 324.417969 499.730469 322.335938 499.089844 320.253906 C 498.609375 318.652344 497.808594 317.53125 496.207031 316.890625 C 495.726562 316.730469 495.410156 317.53125 496.046875 317.691406 C 498.128906 318.492188 498.449219 321.054688 499.089844 322.816406 C 499.730469 324.578125 500.367188 326.5 501.007812 328.257812 C 502.289062 331.78125 503.730469 335.464844 505.648438 338.828125 C 505.648438 339.46875 506.289062 338.988281 506.128906 338.507812 Z M 506.128906 338.507812 " fill-opacity="1" fill-rule="nonzero"/><path fill="#e8452e" d="M 288.347656 335.304688 C 294.429688 333.0625 300.992188 333.382812 306.910156 335.785156 C 307.550781 336.105469 307.871094 334.984375 307.230469 334.664062 C 301.148438 332.101562 294.269531 332.101562 288.027344 334.183594 C 287.390625 334.503906 287.710938 335.625 288.347656 335.304688 Z M 288.347656 335.304688 " fill-opacity="1" fill-rule="nonzero"/><path fill="#ff7a5a" d="M 422.601562 212.804688 C 418.441406 214.246094 414.601562 216.96875 412.039062 220.492188 C 411.71875 220.972656 412.519531 221.453125 412.839844 220.972656 C 415.402344 217.609375 418.921875 215.046875 422.921875 213.605469 C 423.242188 213.445312 423.082031 212.644531 422.601562 212.804688 Z M 422.601562 212.804688 " fill-opacity="1" fill-rule="nonzero"/><path fill="#ff7a5a" d="M 198.261719 157.878906 C 200.660156 161.242188 203.222656 164.925781 203.0625 169.25 C 203.0625 169.730469 203.863281 169.730469 203.863281 169.25 C 203.863281 164.765625 201.460938 160.921875 198.902344 157.398438 C 198.742188 157.078125 197.941406 157.398438 198.261719 157.878906 Z M 198.261719 157.878906 " fill-opacity="1" fill-rule="nonzero"/><path fill="#ff7a5a" d="M 129.132812 110.160156 C 132.335938 109.519531 135.855469 108.71875 137.933594 105.996094 C 138.253906 105.515625 137.613281 105.035156 137.296875 105.355469 C 135.214844 107.917969 131.855469 108.71875 128.8125 109.199219 C 128.335938 109.519531 128.65625 110.320312 129.132812 110.160156 Z M 129.132812 110.160156 " fill-opacity="1" fill-rule="nonzero"/><path fill="#ff7a5a" d="M 128.496094 81.976562 C 128.496094 86.941406 126.574219 92.226562 128.972656 97.03125 C 129.292969 97.511719 129.933594 97.03125 129.773438 96.550781 C 127.375 91.90625 129.453125 86.78125 129.453125 81.976562 C 129.292969 81.335938 128.496094 81.335938 128.496094 81.976562 Z M 128.496094 81.976562 " fill-opacity="1" fill-rule="nonzero"/><path fill="#ff7a5a" d="M 105.933594 77.335938 C 108.652344 79.574219 111.210938 81.816406 113.613281 84.21875 C 113.933594 84.539062 114.574219 84.058594 114.253906 83.578125 C 111.691406 81.175781 109.132812 78.933594 106.574219 76.695312 C 106.09375 76.375 105.453125 77.015625 105.933594 77.335938 Z M 105.933594 77.335938 " fill-opacity="1" fill-rule="nonzero"/><path fill="#ff7a5a" d="M 108.011719 69.648438 C 111.851562 72.53125 115.375 75.894531 118.734375 79.414062 C 119.054688 79.894531 119.695312 79.253906 119.375 78.777344 C 116.011719 75.09375 112.332031 71.890625 108.492188 68.847656 C 108.011719 68.6875 107.53125 69.328125 108.011719 69.648438 Z M 108.011719 69.648438 " fill-opacity="1" fill-rule="nonzero"/><path fill="#ffa18a" d="M 326.433594 116.246094 C 326.433594 116.246094 319.550781 115.125 317.632812 111.28125 L 312.511719 93.027344 C 314.273438 90.625 318.113281 74.773438 315.710938 65.003906 C 310.589844 44.1875 268.1875 37.78125 268.1875 37.78125 C 244.824219 51.394531 253.144531 78.136719 253.144531 78.136719 C 259.707031 98.3125 270.265625 111.601562 283.546875 109.839844 L 284.1875 115.925781 C 284.507812 119.289062 282.429688 122.492188 279.226562 123.613281 L 273.148438 126.015625 C 290.109375 132.417969 310.429688 130.976562 326.433594 116.246094 " fill-opacity="1" fill-rule="nonzero"/><path fill="#ff886b" d="M 304.03125 93.507812 C 304.03125 93.507812 296.671875 109.039062 283.546875 110.160156 L 283.707031 113.363281 C 295.070312 112.722656 302.269531 108.078125 304.03125 93.507812 " fill-opacity="1" fill-rule="nonzero"/><path fill="#ff8d72" d="M 272.027344 79.253906 C 271.867188 79.253906 271.707031 79.253906 271.707031 79.574219 C 271.546875 80.855469 271.386719 82.136719 271.066406 83.578125 C 270.90625 84.539062 270.746094 85.5 270.746094 86.460938 C 270.746094 87.101562 270.90625 87.742188 271.386719 88.0625 C 271.707031 88.222656 272.027344 88.382812 272.507812 88.382812 C 272.828125 88.382812 273.148438 88.382812 273.308594 88.222656 C 274.429688 87.902344 275.226562 87.101562 275.707031 86.140625 C 275.867188 85.820312 275.546875 85.660156 275.386719 85.660156 C 275.226562 85.660156 275.226562 85.660156 275.066406 85.820312 C 274.589844 86.78125 273.789062 87.582031 272.667969 87.582031 L 272.507812 87.582031 C 272.027344 87.582031 271.546875 87.421875 271.386719 86.78125 C 271.226562 85.820312 271.546875 84.859375 271.707031 83.898438 C 272.027344 82.457031 272.1875 81.015625 272.347656 79.574219 C 272.347656 79.414062 272.1875 79.253906 272.027344 79.253906 " fill-opacity="1" fill-rule="nonzero"/><path fill="#cc674e" d="M 262.105469 68.527344 C 260.1875 69.007812 256.828125 70.449219 255.226562 72.050781 C 253.945312 73.332031 252.984375 74.292969 252.347656 75.09375 L 252.503906 75.574219 C 254.105469 74.132812 256.347656 73.011719 258.746094 71.890625 C 261.308594 70.609375 264.667969 70.128906 264.507812 69.328125 C 264.507812 68.046875 264.1875 68.046875 262.105469 68.527344 Z M 262.105469 68.527344 " fill-opacity="1" fill-rule="nonzero"/><path fill="#cc674e" d="M 275.867188 66.125 C 275.386719 65.164062 275.707031 64.84375 277.949219 64.523438 C 280.027344 64.203125 284.027344 63.882812 286.429688 64.683594 C 292.03125 66.285156 293.789062 67.566406 292.667969 67.085938 C 289.949219 66.125 286.589844 65.964844 282.75 65.964844 C 279.707031 65.964844 276.347656 66.925781 275.867188 66.125 Z M 275.867188 66.125 " fill-opacity="1" fill-rule="nonzero"/><path fill="#ffffff" d="M 275.226562 95.589844 C 272.027344 96.070312 270.109375 94.628906 269.148438 93.828125 C 268.988281 93.667969 268.988281 93.667969 269.148438 93.507812 C 269.148438 93.507812 272.507812 93.667969 274.746094 93.347656 C 276.988281 93.027344 280.347656 91.585938 280.347656 91.585938 C 280.507812 91.585938 280.667969 91.585938 280.507812 91.746094 C 279.867188 92.867188 278.269531 95.269531 275.226562 95.589844 Z M 275.226562 95.589844 " fill-opacity="1" fill-rule="nonzero"/><path fill="#cc674e" d="M 459.085938 102.796875 C 456.84375 98.632812 452.203125 97.511719 448.363281 95.109375 C 441.644531 90.785156 444.523438 83.578125 443.5625 77.015625 C 441.804688 65.324219 431.242188 57.636719 420.042969 56.195312 C 417 55.875 413.960938 56.035156 410.921875 56.195312 C 406.601562 56.515625 402.121094 56.835938 397.960938 55.394531 C 391.238281 52.996094 387.71875 46.269531 384.519531 40.183594 C 381.957031 35.21875 379.238281 30.253906 374.757812 26.894531 C 369.957031 23.53125 364.035156 22.25 358.277344 22.25 C 353.15625 22.25 348.035156 23.050781 342.753906 24.011719 C 334.914062 25.453125 326.914062 26.734375 319.550781 24.8125 C 316.03125 22.570312 313.3125 19.527344 310.269531 16.644531 C 303.230469 10.078125 293.789062 6.554688 284.027344 7.355469 C 276.828125 7.996094 269.148438 11.039062 264.828125 16.964844 C 264.1875 16.164062 262.585938 15.363281 260.667969 15.042969 C 250.90625 12 239.382812 15.042969 232.664062 22.730469 C 228.824219 27.214844 229.144531 33.457031 225.464844 37.941406 C 222.421875 41.785156 219.382812 44.828125 219.222656 50.113281 C 219.222656 53.796875 219.222656 56.835938 216.824219 60.039062 C 215.382812 61.960938 213.621094 63.882812 212.664062 66.125 C 211.542969 68.847656 212.023438 71.570312 212.183594 74.453125 C 212.34375 78.617188 210.582031 81.335938 207.542969 84.058594 C 203.859375 87.421875 200.820312 90.785156 199.539062 95.910156 C 198.421875 100.234375 198.902344 105.035156 201.140625 108.878906 C 203.0625 111.921875 205.941406 114.324219 206.742188 118.007812 C 207.542969 121.851562 205.78125 125.855469 205.300781 129.535156 C 204.660156 134.179688 206.582031 140.425781 212.34375 139.945312 C 212.980469 139.945312 212.980469 138.824219 212.34375 138.824219 C 208.183594 139.144531 206.261719 135.140625 206.261719 131.457031 C 206.261719 128.257812 207.542969 125.054688 207.863281 121.851562 C 208.339844 117.046875 206.421875 114.003906 203.542969 110.320312 C 200.019531 105.675781 199.0625 100.394531 200.820312 94.789062 C 202.582031 89.503906 206.421875 86.78125 210.101562 82.9375 C 213.621094 79.09375 212.820312 75.253906 212.820312 70.289062 C 212.820312 64.683594 217.460938 62.121094 219.382812 57.316406 C 220.183594 55.074219 220.023438 52.835938 220.023438 50.59375 C 220.023438 47.070312 221.144531 44.507812 223.222656 41.785156 C 224.503906 40.34375 225.785156 38.902344 226.902344 37.300781 C 228.34375 35.21875 228.984375 32.976562 229.625 30.574219 C 231.863281 22.25 239.066406 17.125 247.226562 15.523438 C 241.464844 17.285156 236.023438 20.96875 234.265625 28.175781 C 233.304688 31.855469 231.222656 34.097656 229.144531 36.980469 C 227.542969 39.222656 226.101562 41.785156 225.941406 44.667969 C 225.941406 46.269531 226.421875 47.871094 226.421875 49.3125 C 226.421875 51.714844 225.304688 53.316406 224.023438 55.074219 C 222.101562 57.636719 220.34375 60.199219 219.382812 63.242188 C 218.582031 65.644531 218.421875 68.207031 219.0625 70.769531 C 219.382812 72.371094 220.023438 73.972656 220.503906 75.574219 C 220.984375 77.175781 221.78125 79.574219 220.023438 81.015625 C 219.382812 81.496094 218.261719 81.65625 217.621094 81.816406 C 212.660156 83.097656 210.582031 87.101562 208.980469 91.746094 C 207.222656 97.03125 205.78125 103.277344 208.660156 108.398438 C 209.300781 109.679688 213.941406 113.523438 213.621094 114.964844 C 212.820312 117.847656 211.542969 122.652344 212.023438 125.695312 C 212.980469 131.617188 217.300781 136.421875 223.222656 137.703125 C 222.421875 146.671875 231.222656 152.757812 239.542969 153.234375 C 242.746094 153.394531 246.425781 152.4375 247.707031 149.234375 C 248.503906 147.3125 248.183594 145.070312 246.746094 143.628906 C 250.746094 142.828125 254.425781 141.066406 257.144531 138.023438 C 259.066406 135.941406 260.027344 133.378906 261.785156 131.296875 C 263.546875 129.054688 269.46875 127.457031 269.46875 127.457031 C 276.667969 124.414062 284.988281 123.613281 284.1875 115.925781 L 283.707031 109.839844 C 279.386719 110.480469 269.628906 108.558594 262.90625 98.472656 C 261.148438 95.910156 255.066406 85.820312 252.664062 75.253906 C 252.664062 75.253906 251.707031 67.40625 253.464844 65.644531 C 254.90625 64.203125 256.507812 63.242188 257.625 61.320312 C 258.746094 59.398438 259.386719 56.996094 259.226562 54.753906 C 259.066406 52.835938 258.425781 50.914062 260.347656 49.3125 C 261.148438 48.671875 262.585938 48.351562 263.386719 47.710938 C 265.628906 46.269531 267.226562 44.1875 268.347656 41.785156 C 269.628906 43.867188 271.386719 45.789062 273.46875 47.070312 C 275.386719 48.351562 277.46875 49.3125 279.707031 49.632812 C 280.828125 49.792969 282.109375 49.792969 283.230469 50.113281 C 285.46875 50.433594 286.269531 52.035156 287.390625 53.796875 C 292.03125 62.121094 299.550781 72.371094 310.269531 70.289062 C 313.792969 79.734375 309.3125 91.105469 315.070312 99.753906 C 317.472656 103.4375 321.632812 105.835938 325.953125 105.996094 C 328.351562 106.15625 330.59375 105.675781 332.832031 105.035156 C 336.671875 104.074219 340.355469 103.117188 344.355469 105.835938 C 348.996094 108.71875 353.15625 112.402344 358.753906 112.722656 C 359.714844 112.722656 360.675781 112.722656 361.636719 112.5625 C 362.277344 112.402344 362.757812 112.242188 363.394531 112.082031 C 364.675781 111.601562 364.675781 111.121094 365.796875 112.082031 C 366.757812 112.882812 366.597656 114.164062 366.917969 115.285156 C 367.238281 116.40625 367.714844 117.367188 368.195312 118.328125 C 370.277344 122.011719 373.957031 124.734375 377.957031 125.695312 C 380.675781 126.335938 385.316406 125.054688 386.4375 128.257812 C 387.238281 130.496094 386.757812 133.058594 387.238281 135.300781 C 389.480469 145.871094 401.320312 150.515625 410.28125 145.230469 C 412.519531 153.394531 419.082031 162.84375 428.042969 163.644531 C 431.402344 163.964844 435.242188 162.683594 437.164062 159.640625 C 438.601562 157.238281 438.441406 154.035156 436.683594 151.796875 C 442.285156 151.476562 446.445312 146.351562 445.164062 141.386719 C 447.402344 142.027344 449.964844 141.386719 451.402344 139.304688 C 454.765625 134.820312 451.882812 129.535156 448.523438 126.015625 C 451.085938 125.054688 453.644531 123.132812 453.644531 120.25 C 453.644531 120.089844 453.644531 119.769531 453.644531 119.609375 C 454.125 119.449219 454.765625 119.289062 455.246094 118.96875 C 457.964844 117.207031 457.964844 114.003906 456.84375 111.28125 C 453.484375 102.957031 444.363281 98.953125 436.363281 96.871094 C 431.082031 95.429688 428.203125 92.546875 427.082031 87.261719 C 426.28125 83.257812 426.28125 79.253906 425 75.414062 C 422.441406 68.046875 415.082031 65.164062 407.878906 64.203125 C 398.121094 62.921875 387.078125 64.363281 380.519531 55.394531 C 375.558594 48.511719 373.476562 40.34375 366.117188 35.21875 C 358.117188 29.613281 347.875 28.816406 338.273438 28.175781 C 332.992188 27.855469 327.394531 28.015625 322.433594 26.414062 C 330.433594 27.375 338.914062 25.453125 346.753906 24.171875 C 353.476562 23.050781 360.675781 22.410156 367.398438 24.652344 C 374.597656 27.054688 378.757812 32.496094 382.117188 39.0625 C 384.679688 44.027344 387.078125 49.3125 391.398438 53.15625 C 395.878906 57.15625 401.480469 57.636719 407.242188 57.316406 C 414.761719 56.835938 421.960938 56.675781 428.84375 60.039062 C 434.921875 63.082031 439.882812 68.6875 441.324219 75.414062 C 442.601562 81.335938 439.722656 88.703125 444.203125 93.667969 C 447.882812 97.671875 454.445312 98.152344 457.164062 103.117188 C 458.445312 104.074219 459.40625 103.4375 459.085938 102.796875 " fill-opacity="1" fill-rule="nonzero"/><path fill="#ffa18a" d="M 300.992188 69.488281 C 300.832031 70.449219 300.832031 71.570312 300.992188 72.371094 C 301.789062 76.214844 305.152344 80.054688 308.992188 79.253906 C 309.632812 79.09375 310.269531 78.777344 310.75 78.457031 C 313.472656 76.855469 316.351562 73.332031 315.390625 69.328125 C 314.273438 64.203125 310.75 61.960938 306.75 62.601562 C 304.03125 63.402344 301.628906 66.445312 300.992188 69.488281 " fill-opacity="1" fill-rule="nonzero"/><path fill="#ff8d72" d="M 309.152344 67.40625 L 308.992188 67.40625 C 308.191406 68.207031 307.550781 69.007812 307.230469 70.128906 C 306.910156 71.25 307.070312 72.53125 307.390625 73.652344 C 307.390625 73.8125 307.550781 73.972656 307.710938 73.972656 C 308.03125 73.972656 308.191406 73.8125 308.191406 73.492188 C 308.03125 72.691406 307.871094 71.890625 308.03125 71.089844 L 309.152344 71.089844 L 309.3125 71.25 L 309.472656 71.25 L 309.632812 71.410156 L 309.632812 71.570312 L 309.792969 71.730469 L 309.792969 72.53125 L 309.632812 72.691406 C 309.472656 72.851562 309.472656 73.171875 309.632812 73.332031 C 309.632812 73.332031 309.792969 73.492188 309.953125 73.492188 C 310.109375 73.492188 310.109375 73.492188 310.269531 73.332031 C 310.429688 73.011719 310.589844 72.691406 310.75 72.210938 C 310.910156 71.570312 310.589844 70.769531 310.109375 70.289062 C 309.632812 69.96875 309.152344 69.808594 308.671875 69.808594 C 308.511719 69.808594 308.511719 69.808594 308.351562 69.808594 C 308.671875 69.007812 309.152344 68.367188 309.632812 67.886719 C 309.792969 67.726562 309.792969 67.566406 309.792969 67.246094 C 309.472656 67.566406 309.3125 67.40625 309.152344 67.40625 " fill-opacity="1" fill-rule="nonzero"/><path fill="#b3543b" d="M 268.347656 41.625 C 265.46875 37.941406 265.308594 33.296875 265.46875 28.976562 C 265.46875 28.175781 264.347656 28.175781 264.347656 28.976562 C 264.027344 33.617188 264.507812 38.421875 267.386719 42.265625 C 267.867188 42.746094 268.828125 42.265625 268.347656 41.625 Z M 268.347656 41.625 " fill-opacity="1" fill-rule="nonzero"/><path fill="#b3543b" d="M 220.664062 80.214844 C 222.261719 84.21875 226.261719 86.941406 230.582031 87.261719 C 231.703125 87.261719 232.664062 87.261719 233.785156 86.941406 C 234.746094 86.621094 235.0625 87.101562 235.542969 87.902344 C 235.863281 88.382812 236.183594 88.863281 236.503906 89.34375 C 238.105469 91.265625 240.183594 92.546875 242.585938 92.867188 C 243.226562 93.027344 243.546875 91.90625 242.90625 91.746094 C 240.503906 91.265625 238.425781 89.984375 236.984375 88.0625 C 236.503906 87.261719 236.183594 86.140625 235.222656 85.820312 C 234.265625 85.5 233.304688 85.980469 232.34375 86.140625 C 228.023438 86.621094 223.542969 84.058594 221.941406 79.894531 C 221.464844 79.253906 220.503906 79.574219 220.664062 80.214844 Z M 220.664062 80.214844 " fill-opacity="1" fill-rule="nonzero"/><path fill="#b3543b" d="M 364.835938 113.363281 C 366.917969 112.402344 368.675781 110.960938 370.277344 109.199219 C 370.917969 108.398438 371.71875 107.4375 372.195312 106.476562 C 372.515625 105.996094 372.675781 105.195312 373.15625 104.875 C 373.636719 104.554688 374.597656 104.714844 375.238281 104.714844 C 379.398438 104.875 385 104.074219 386.117188 99.113281 C 386.277344 98.472656 385.15625 98.152344 385 98.792969 C 384.519531 101.035156 382.757812 102.476562 380.679688 103.117188 C 379.398438 103.4375 378.117188 103.597656 376.835938 103.597656 C 375.71875 103.597656 374.277344 103.277344 373.15625 103.4375 C 372.195312 103.597656 372.035156 104.554688 371.558594 105.195312 C 371.078125 106.15625 370.4375 107.117188 369.796875 108.078125 C 368.355469 109.839844 366.597656 111.121094 364.515625 112.242188 C 363.714844 112.722656 364.195312 113.683594 364.835938 113.363281 Z M 364.835938 113.363281 " fill-opacity="1" fill-rule="nonzero"/><path fill="#b3543b" d="M 410.921875 146.191406 C 413.960938 143.148438 415.082031 138.664062 414.121094 134.660156 C 413.960938 134.820312 413.800781 135.140625 413.800781 135.300781 C 415.082031 135.140625 416.199219 135.78125 417.480469 135.78125 C 418.601562 135.941406 419.722656 135.78125 420.679688 135.460938 C 422.761719 134.980469 424.523438 133.699219 425.800781 131.9375 C 426.28125 131.296875 425.320312 130.816406 424.84375 131.457031 C 423.722656 133.058594 421.800781 134.179688 419.882812 134.660156 C 418.921875 134.820312 417.800781 134.820312 416.839844 134.660156 C 415.722656 134.339844 414.761719 134.019531 413.640625 134.339844 C 413.320312 134.339844 413.160156 134.820312 413.320312 134.980469 C 414.28125 138.664062 413.160156 142.667969 410.441406 145.390625 C 409.480469 145.871094 410.28125 146.671875 410.921875 146.191406 Z M 410.921875 146.191406 " fill-opacity="1" fill-rule="nonzero"/><path fill="#b3543b" d="M 316.671875 69.648438 C 321.792969 69.488281 326.433594 65.484375 327.234375 60.199219 C 327.074219 60.359375 326.753906 60.519531 326.59375 60.519531 C 330.59375 61.800781 335.714844 63.5625 339.394531 60.679688 C 342.753906 58.117188 343.394531 53.796875 341.953125 49.953125 C 341.792969 50.113281 341.632812 50.433594 341.472656 50.59375 C 343.554688 50.59375 345.316406 49.792969 346.59375 48.191406 C 347.074219 47.710938 346.273438 46.910156 345.792969 47.390625 C 344.675781 48.671875 343.074219 49.3125 341.3125 49.3125 C 340.992188 49.3125 340.675781 49.632812 340.835938 49.953125 C 342.273438 53.476562 341.472656 57.796875 338.113281 59.878906 C 334.753906 61.960938 330.273438 60.199219 326.914062 59.078125 C 326.59375 58.917969 326.273438 59.238281 326.273438 59.398438 C 325.632812 64.042969 321.632812 67.726562 316.832031 68.046875 C 315.871094 68.6875 315.871094 69.808594 316.671875 69.648438 Z M 316.671875 69.648438 " fill-opacity="1" fill-rule="nonzero"/><path fill="#2e2b29" d="M 284.988281 76.855469 C 283.070312 76.214844 280.507812 76.214844 278.75 77.65625 C 278.269531 77.976562 278.910156 78.457031 279.386719 78.136719 C 280.828125 76.855469 283.070312 77.015625 284.828125 77.496094 C 285.308594 77.65625 285.628906 76.855469 284.988281 76.855469 Z M 284.988281 76.855469 " fill-opacity="1" fill-rule="nonzero"/><path fill="#2e2b29" d="M 265.785156 79.894531 C 263.867188 79.253906 261.308594 79.253906 259.546875 80.695312 C 259.066406 81.015625 259.707031 81.496094 260.1875 81.175781 C 261.625 79.894531 263.867188 80.054688 265.628906 80.535156 C 265.945312 80.695312 266.265625 79.894531 265.785156 79.894531 Z M 265.785156 79.894531 " fill-opacity="1" fill-rule="nonzero"/><path fill="#b3543b" d="M 223.222656 138.664062 C 228.824219 140.105469 234.902344 137.703125 237.945312 132.738281 L 236.984375 132.738281 C 238.425781 135.300781 241.144531 137.0625 244.023438 137.382812 C 247.546875 137.863281 250.585938 135.941406 253.304688 134.019531 C 253.945312 133.539062 253.304688 132.578125 252.664062 133.058594 C 250.265625 134.820312 247.707031 136.582031 244.664062 136.421875 C 241.785156 136.261719 239.226562 134.660156 237.945312 132.257812 C 237.785156 131.9375 237.144531 131.9375 236.984375 132.257812 C 234.265625 136.742188 228.664062 138.984375 223.542969 137.542969 C 222.742188 137.382812 222.421875 138.503906 223.222656 138.664062 Z M 223.222656 138.664062 " fill-opacity="1" fill-rule="nonzero"/><path fill="#b3543b" d="M 248.664062 115.445312 C 251.066406 116.40625 253.945312 116.886719 256.507812 115.605469 C 258.425781 114.644531 259.867188 112.402344 259.867188 110.160156 C 259.546875 110.320312 259.226562 110.480469 259.066406 110.640625 C 261.148438 111.921875 263.707031 112.402344 266.105469 111.441406 C 268.1875 110.640625 269.628906 108.71875 269.949219 106.316406 C 270.109375 105.675781 268.988281 105.675781 268.828125 106.316406 C 268.667969 108.238281 267.226562 109.839844 265.308594 110.480469 C 263.386719 111.121094 261.308594 110.640625 259.546875 109.519531 C 259.226562 109.359375 258.746094 109.519531 258.746094 110 C 258.90625 112.082031 257.464844 113.84375 255.707031 114.644531 C 253.625 115.605469 251.226562 115.125 249.144531 114.324219 C 248.34375 114.003906 248.027344 115.125 248.664062 115.445312 Z M 248.664062 115.445312 " fill-opacity="1" fill-rule="nonzero"/><path fill="#b3543b" d="M 286.75 51.554688 C 290.75 51.234375 295.070312 49.632812 296.511719 45.46875 C 296.351562 45.628906 296.191406 45.789062 296.03125 45.789062 C 299.550781 46.109375 303.070312 44.1875 304.832031 41.144531 C 305.152344 40.503906 304.191406 40.023438 303.871094 40.503906 C 302.269531 43.226562 299.230469 44.828125 296.03125 44.507812 C 295.710938 44.507812 295.550781 44.667969 295.550781 44.988281 C 294.269531 48.511719 290.269531 49.953125 286.75 50.273438 C 286.109375 50.433594 285.949219 51.554688 286.75 51.554688 Z M 286.75 51.554688 " fill-opacity="1" fill-rule="nonzero"/><path fill="#b3543b" d="M 340.035156 103.914062 C 342.914062 102.15625 344.675781 98.953125 344.675781 95.589844 C 344.515625 95.75 344.195312 95.910156 344.035156 96.070312 C 345.792969 96.390625 347.554688 95.75 348.675781 94.308594 C 348.835938 93.988281 349.15625 93.667969 349.316406 93.347656 C 349.476562 93.027344 349.476562 92.386719 349.792969 92.066406 C 350.113281 91.746094 351.074219 91.90625 351.554688 91.90625 C 352.195312 91.90625 352.675781 91.90625 353.316406 91.746094 C 357.476562 91.105469 361.476562 88.382812 362.117188 83.898438 C 362.277344 83.257812 361.15625 82.9375 360.996094 83.578125 C 360.355469 88.0625 356.195312 90.464844 352.035156 90.785156 C 350.59375 90.945312 348.835938 90.304688 348.355469 92.066406 C 347.714844 93.988281 346.273438 95.429688 344.195312 95.109375 C 343.875 95.109375 343.554688 95.269531 343.554688 95.589844 C 343.554688 98.632812 342.113281 101.355469 339.554688 102.957031 C 338.753906 103.4375 339.394531 104.394531 340.035156 103.914062 Z M 340.035156 103.914062 " fill-opacity="1" fill-rule="nonzero"/><path fill="#edd9ca" d="M 271.546875 136.261719 C 281.628906 139.304688 292.191406 139.945312 302.589844 137.863281 C 303.230469 137.703125 303.070312 136.582031 302.269531 136.742188 C 292.191406 138.664062 281.628906 138.023438 271.867188 135.140625 C 271.226562 134.820312 270.90625 135.941406 271.546875 136.261719 Z M 271.546875 136.261719 " fill-opacity="1" fill-rule="nonzero"/><path fill="#edd9ca" d="M 315.550781 133.859375 C 319.070312 132.738281 322.273438 130.816406 324.832031 128.417969 C 325.3125 127.9375 324.511719 127.136719 324.03125 127.617188 C 321.472656 130.015625 318.59375 131.777344 315.230469 132.898438 C 314.429688 133.058594 314.75 134.179688 315.550781 133.859375 Z M 315.550781 133.859375 " fill-opacity="1" fill-rule="nonzero"/><path fill="#edd9ca" d="M 300.832031 231.699219 C 309.792969 233.460938 318.59375 236.664062 326.59375 240.988281 C 334.113281 244.992188 341.632812 249.796875 350.59375 249.476562 C 351.394531 249.476562 351.394531 248.355469 350.59375 248.355469 C 340.992188 248.675781 332.992188 242.910156 324.671875 238.746094 C 317.152344 234.902344 309.152344 232.339844 300.992188 230.578125 C 300.351562 230.417969 300.03125 231.539062 300.832031 231.699219 Z M 300.832031 231.699219 " fill-opacity="1" fill-rule="nonzero"/><path fill="#edd9ca" d="M 367.875 194.710938 C 376.675781 192.628906 385.636719 190.386719 393 184.941406 C 393.640625 184.460938 393 183.5 392.359375 183.980469 C 385 189.265625 376.199219 191.507812 367.398438 193.589844 C 366.757812 193.75 367.078125 194.871094 367.875 194.710938 Z M 367.875 194.710938 " fill-opacity="1" fill-rule="nonzero"/><path fill="#edd9ca" d="M 216.984375 152.917969 C 220.503906 170.851562 225.945312 188.144531 233.144531 204.957031 C 233.464844 205.597656 234.425781 205.117188 234.105469 204.316406 C 226.902344 187.664062 221.621094 170.371094 218.101562 152.597656 C 217.941406 151.957031 216.824219 152.277344 216.984375 152.917969 Z M 216.984375 152.917969 " fill-opacity="1" fill-rule="nonzero"/><path fill="#ffc861" d="M 543.894531 374.699219 C 536.691406 369.09375 526.453125 367.332031 517.808594 370.535156 C 509.488281 373.578125 505.96875 382.863281 513.808594 388.789062 C 517.171875 391.351562 521.972656 393.59375 526.609375 394.554688 C 531.570312 395.996094 536.691406 395.996094 541.652344 393.59375 C 550.292969 389.109375 551.574219 380.621094 543.894531 374.699219 Z M 543.894531 374.699219 " fill-opacity="1" fill-rule="nonzero"/><path fill="#ffc861" d="M 183.859375 325.539062 C 180.820312 321.535156 177.140625 318.011719 173.9375 314.167969 C 169.9375 309.203125 167.859375 303.277344 164.175781 298.316406 C 158.097656 290.628906 146.574219 283.742188 137.136719 283.582031 C 120.972656 283.421875 114.894531 299.277344 126.09375 311.445312 C 128.65625 314.167969 133.453125 316.890625 137.457031 318.8125 C 145.777344 322.976562 151.535156 325.058594 157.296875 333.0625 C 160.816406 337.867188 164.019531 342.511719 168.816406 346.035156 C 174.417969 350.039062 183.699219 354.359375 188.660156 346.835938 C 193.140625 340.109375 188.019531 330.980469 183.859375 325.539062 Z M 183.859375 325.539062 " fill-opacity="1" fill-rule="nonzero"/><path fill="#ffc861" d="M 134.574219 213.765625 C 131.214844 209.761719 123.695312 208 120.972656 213.765625 C 119.535156 216.96875 120.652344 219.53125 122.734375 221.453125 C 124.8125 223.375 128.015625 224.65625 130.894531 224.65625 C 133.136719 224.496094 135.535156 223.214844 136.335938 221.132812 C 137.296875 218.410156 136.175781 215.6875 134.574219 213.765625 Z M 134.574219 213.765625 " fill-opacity="1" fill-rule="nonzero"/></svg>