<svg width="51" height="43" viewBox="0 0 51 43" fill="none" xmlns="http://www.w3.org/2000/svg">
<mask id="mask0_181_103" style="mask-type:luminance" maskUnits="userSpaceOnUse" x="0" y="0" width="51" height="43">
<path d="M0 0H50.6669V43H0V0Z" fill="white"/>
</mask>
<g mask="url(#mask0_181_103)">
<mask id="mask1_181_103" style="mask-type:luminance" maskUnits="userSpaceOnUse" x="0" y="0" width="51" height="43">
<path d="M50.6655 19.1066V18.1012L49.6655 17.992C49.397 17.9643 46.5145 17.6755 42.7821 18.2355V10.9004L41.5163 11.0624C39.4247 11.3336 37.484 11.7344 35.6914 12.2519C33.7423 8.1169 30.5192 4.21139 26.0386 0.582732L25.3329 0.00878906L24.6274 0.582732C20.1468 4.21139 16.9237 8.1169 14.9746 12.2519C13.182 11.7344 11.2413 11.3336 9.14968 11.0624L7.88387 10.9004V18.2355C4.1506 17.6755 1.26903 17.9643 1.00056 17.992L0.000488281 18.1012V19.1066C0.000488281 27.3572 2.21807 33.6371 6.59583 37.7775C10.2172 41.2017 15.1988 42.9882 21.0765 42.9882C21.5386 42.9882 22.0088 42.9743 22.4849 42.9548H24.095L23.7755 41.572C22.9801 38.1284 21.6616 29.8074 25.3329 23.0269C29.0042 29.8074 27.6857 38.1284 26.8903 41.572L26.571 42.9548H28.1811C28.657 42.9743 29.1274 42.9882 29.5895 42.9882C35.4672 42.9882 40.4497 41.2017 44.07 37.7775C48.4478 33.6371 50.6655 27.3572 50.6655 19.1066ZM40.5423 13.4683V18.664C39.6348 18.8742 38.6997 19.1372 37.7617 19.4704C37.5627 17.7263 37.1599 16.0129 36.5542 14.3357C37.8035 13.9857 39.1302 13.6923 40.5423 13.4683ZM10.1237 13.4683C11.5348 13.6923 12.8625 13.9867 14.1118 14.3366C13.507 16.014 13.1033 17.7272 12.9043 19.4713C11.9664 19.1381 11.0312 18.8751 10.1237 18.665V13.4683ZM8.13576 36.1484C4.40522 32.6233 2.43114 27.248 2.25525 20.1619C3.41717 20.1258 5.48111 20.1453 7.88387 20.5452V27.197C7.88387 32.2836 12.9247 37.3685 17.8895 40.5408C14.6099 40.1094 11.0505 38.9088 8.13576 36.1484ZM10.1237 27.1979V21.0163C10.9922 21.2403 11.8792 21.517 12.7645 21.8615C12.72 28.5893 15.6265 34.3313 18.1802 38.0627C13.7977 35.0312 10.1237 30.7508 10.1237 27.1979ZM20.8857 37.959C18.5052 34.7534 15.307 29.2965 15.0247 22.9C17.3238 24.1377 19.483 25.9234 21.1126 28.4883C20.4802 31.918 20.5746 35.269 20.8857 37.959ZM21.8209 25.6215C19.8747 23.1944 17.5051 21.517 15.069 20.3636C15.2172 18.5494 15.6098 16.7692 16.2479 15.0243C19.6589 16.2786 22.3553 18.0708 24.3071 20.3943C23.1904 22.0576 22.3866 23.8294 21.8209 25.6215ZM25.3329 18.1772C23.2274 15.9491 20.4829 14.207 17.1275 12.9609C18.8386 9.4332 21.5774 6.07393 25.3329 2.90439C29.0886 6.07393 31.8275 9.4332 33.5385 12.9609C30.1829 14.207 27.4386 15.9482 25.3329 18.1772ZM26.358 20.3943C28.3098 18.0708 31.0071 16.2786 34.4172 15.0243C35.0562 16.7683 35.4479 18.5494 35.5959 20.3636C33.1598 21.517 30.7904 23.1944 28.8442 25.6215C28.2794 23.8294 27.4756 22.0576 26.358 20.3943ZM29.5534 28.4883C31.183 25.9243 33.3422 24.1377 35.6413 22.9C35.359 29.2974 32.1608 34.7534 29.7803 37.959C30.0914 35.269 30.1858 31.918 29.5534 28.4883ZM37.9015 21.8615C38.7868 21.517 39.6738 21.2403 40.5423 21.0163V27.1979C40.5423 30.7508 36.8683 35.0312 32.4858 38.0637C35.0395 34.3313 37.946 28.5893 37.9015 21.8615ZM42.5303 36.1484C39.6155 38.9088 36.0552 40.1103 32.7765 40.5408C37.7413 37.3685 42.7821 32.2847 42.7821 27.197V20.5452C45.1849 20.1451 47.2488 20.1249 48.4108 20.1619C48.2349 27.2479 46.2608 32.6233 42.5303 36.1484Z" fill="white"/>
</mask>
<g mask="url(#mask1_181_103)">
<path d="M0.000488281 0.00878906V42.9882H50.6655V0.00878906H0.000488281Z" fill="#8699DD"/>
</g>
</g>
</svg>
