<svg width="211" height="46" viewBox="0 0 211 46" fill="none" xmlns="http://www.w3.org/2000/svg">
<mask id="mask0_181_116" style="mask-type:luminance" maskUnits="userSpaceOnUse" x="0" y="0" width="51" height="43">
<path d="M0 0H50.6669V43H0V0Z" fill="white"/>
</mask>
<g mask="url(#mask0_181_116)">
<mask id="mask1_181_116" style="mask-type:luminance" maskUnits="userSpaceOnUse" x="0" y="0" width="51" height="43">
<path d="M50.6655 19.1066V18.1012L49.6655 17.992C49.397 17.9643 46.5145 17.6755 42.7821 18.2355V10.9004L41.5163 11.0624C39.4247 11.3336 37.484 11.7344 35.6914 12.2519C33.7423 8.1169 30.5192 4.21139 26.0386 0.582732L25.3329 0.00878906L24.6274 0.582732C20.1468 4.21139 16.9237 8.1169 14.9746 12.2519C13.182 11.7344 11.2413 11.3336 9.14968 11.0624L7.88387 10.9004V18.2355C4.1506 17.6755 1.26903 17.9643 1.00056 17.992L0.000488281 18.1012V19.1066C0.000488281 27.3572 2.21807 33.6371 6.59583 37.7775C10.2172 41.2017 15.1988 42.9882 21.0765 42.9882C21.5386 42.9882 22.0088 42.9743 22.4849 42.9548H24.095L23.7755 41.572C22.9801 38.1284 21.6616 29.8074 25.3329 23.0269C29.0042 29.8074 27.6857 38.1284 26.8903 41.572L26.571 42.9548H28.1811C28.657 42.9743 29.1274 42.9882 29.5895 42.9882C35.4672 42.9882 40.4497 41.2017 44.07 37.7775C48.4478 33.6371 50.6655 27.3572 50.6655 19.1066ZM40.5423 13.4683V18.664C39.6348 18.8742 38.6997 19.1372 37.7617 19.4704C37.5627 17.7263 37.1599 16.0129 36.5542 14.3357C37.8035 13.9857 39.1302 13.6923 40.5423 13.4683ZM10.1237 13.4683C11.5348 13.6923 12.8625 13.9867 14.1118 14.3366C13.507 16.014 13.1033 17.7272 12.9043 19.4713C11.9664 19.1381 11.0312 18.8751 10.1237 18.665V13.4683ZM8.13576 36.1484C4.40522 32.6233 2.43114 27.248 2.25525 20.1619C3.41717 20.1258 5.48111 20.1453 7.88387 20.5452V27.197C7.88387 32.2836 12.9247 37.3685 17.8895 40.5408C14.6099 40.1094 11.0505 38.9088 8.13576 36.1484ZM10.1237 27.1979V21.0163C10.9922 21.2403 11.8792 21.517 12.7645 21.8615C12.72 28.5893 15.6265 34.3313 18.1802 38.0627C13.7977 35.0312 10.1237 30.7508 10.1237 27.1979ZM20.8857 37.959C18.5052 34.7534 15.307 29.2965 15.0247 22.9C17.3238 24.1377 19.483 25.9234 21.1126 28.4883C20.4802 31.918 20.5746 35.269 20.8857 37.959ZM21.8209 25.6215C19.8747 23.1944 17.5051 21.517 15.069 20.3636C15.2172 18.5494 15.6098 16.7692 16.2479 15.0243C19.6589 16.2786 22.3553 18.0708 24.3071 20.3943C23.1904 22.0576 22.3866 23.8294 21.8209 25.6215ZM25.3329 18.1772C23.2274 15.9491 20.4829 14.207 17.1275 12.9609C18.8386 9.4332 21.5774 6.07393 25.3329 2.90439C29.0886 6.07393 31.8275 9.4332 33.5385 12.9609C30.1829 14.207 27.4386 15.9482 25.3329 18.1772ZM26.358 20.3943C28.3098 18.0708 31.0071 16.2786 34.4172 15.0243C35.0562 16.7683 35.4479 18.5494 35.5959 20.3636C33.1598 21.517 30.7904 23.1944 28.8442 25.6215C28.2794 23.8294 27.4756 22.0576 26.358 20.3943ZM29.5534 28.4883C31.183 25.9243 33.3422 24.1377 35.6413 22.9C35.359 29.2974 32.1608 34.7534 29.7803 37.959C30.0914 35.269 30.1858 31.918 29.5534 28.4883ZM37.9015 21.8615C38.7868 21.517 39.6738 21.2403 40.5423 21.0163V27.1979C40.5423 30.7508 36.8683 35.0312 32.4858 38.0637C35.0395 34.3313 37.946 28.5893 37.9015 21.8615ZM42.5303 36.1484C39.6155 38.9088 36.0552 40.1103 32.7765 40.5408C37.7413 37.3685 42.7821 32.2847 42.7821 27.197V20.5452C45.1849 20.1451 47.2488 20.1249 48.4108 20.1619C48.2349 27.2479 46.2608 32.6233 42.5303 36.1484Z" fill="white"/>
</mask>
<g mask="url(#mask1_181_116)">
<path d="M0.000488281 0.00878906V42.9882H50.6655V0.00878906H0.000488281Z" fill="#8699DD"/>
</g>
</g>
<path d="M60.6045 15.3125V3.59375L61.4326 3.20312H64.3936C65.5811 3.20312 66.5446 3.58073 67.2842 4.33594C67.9873 5.05469 68.3389 5.97917 68.3389 7.10938C68.3389 8.24479 67.9873 9.16927 67.2842 9.88281C66.8675 10.3047 66.3805 10.6094 65.8232 10.7969L68.5264 14.6641L67.1514 15.3125H67.0732L64.0654 11.0156H62.167V14.6094L60.6826 15.3125H60.6045ZM62.167 9.60938H64.3936C65.0758 9.60938 65.6826 9.34115 66.2139 8.80469C66.5889 8.42448 66.7764 7.85938 66.7764 7.10938C66.7764 6.41146 66.5889 5.84635 66.2139 5.41406C65.7503 4.8776 65.1436 4.60938 64.3936 4.60938H62.167V9.60938ZM76.9639 11.5391V12.0312C76.9639 12.8906 76.641 13.638 75.9951 14.2734C75.391 14.862 74.6331 15.1562 73.7217 15.1562C72.8206 15.1562 72.0628 14.862 71.4482 14.2734C70.8024 13.6484 70.4795 12.901 70.4795 12.0312V9.375C70.4795 8.51562 70.8024 7.76823 71.4482 7.13281C72.0524 6.54427 72.8102 6.25 73.7217 6.25C74.6071 6.25 75.3649 6.54427 75.9951 7.13281C76.641 7.73698 76.9639 8.40885 76.9639 9.14844V9.16406L72.1982 12.8984C72.2764 13.0755 72.3857 13.224 72.5264 13.3438C72.8545 13.625 73.2529 13.7656 73.7217 13.7656C74.1904 13.7656 74.5863 13.625 74.9092 13.3438C75.2373 13.0625 75.4014 12.6953 75.4014 12.2422L76.8857 11.5391H76.9639ZM72.042 11.3203L75.3076 8.67188C75.2243 8.41667 75.0941 8.21354 74.917 8.0625C74.5889 7.78125 74.1904 7.64062 73.7217 7.64062C73.2529 7.64062 72.8545 7.78125 72.5264 8.0625C72.2035 8.33854 72.042 8.77604 72.042 9.375V11.3203ZM79.0732 12.2422L80.5576 11.5391H80.6357V12.1641C80.6357 12.7474 80.805 13.1901 81.1436 13.4922C81.4665 13.7786 81.8571 13.9219 82.3154 13.9219C82.8467 13.9219 83.2607 13.7526 83.5576 13.4141C83.8701 13.0599 84.0264 12.6745 84.0264 12.2578C84.0264 11.8099 83.8597 11.4557 83.5264 11.1953C83.2399 10.9714 82.8337 10.8594 82.3076 10.8594C81.3805 10.8594 80.6488 10.6562 80.1123 10.25C79.6383 9.89583 79.4014 9.34635 79.4014 8.60156C79.4014 7.8776 79.7321 7.27865 80.3936 6.80469C80.9092 6.4349 81.5498 6.25 82.3154 6.25C83.0498 6.25 83.6878 6.47917 84.2295 6.9375C84.6462 7.29688 84.904 7.71354 85.0029 8.1875L83.5186 8.89062H83.4404V8.66406C83.4404 8.39323 83.3623 8.16146 83.2061 7.96875C82.9561 7.64583 82.5993 7.48438 82.1357 7.48438C81.766 7.48438 81.4639 7.60156 81.2295 7.83594C81.0003 8.0651 80.8857 8.32031 80.8857 8.60156C80.8857 8.9349 81.0264 9.20052 81.3076 9.39844C81.4639 9.50781 81.7972 9.5625 82.3076 9.5625C83.3649 9.5625 84.1592 9.80469 84.6904 10.2891C85.2686 10.8151 85.5576 11.5 85.5576 12.3438C85.5576 13.0208 85.2581 13.6667 84.6592 14.2812C84.0915 14.8646 83.3102 15.1562 82.3154 15.1562C81.4144 15.1562 80.6566 14.9062 80.042 14.4062C79.3962 13.8802 79.0732 13.1589 79.0732 12.2422ZM88.6982 15.3125V7.82812H86.6904V7.75L87.3232 6.40625H88.6982V3.59375L90.1826 2.89062H90.2607V6.40625H92.2686V6.48438L91.6357 7.82812H90.2607V14.6094L88.7764 15.3125H88.6982ZM93.6357 12.0312V9.375C93.6357 8.51562 93.9587 7.76823 94.6045 7.13281C95.2087 6.54427 95.9665 6.25 96.8779 6.25C97.779 6.25 98.5368 6.54427 99.1514 7.13281C99.7972 7.75781 100.12 8.50521 100.12 9.375V12.0312C100.12 12.8906 99.7972 13.638 99.1514 14.2734C98.5472 14.862 97.7894 15.1562 96.8779 15.1562C95.9769 15.1562 95.2191 14.862 94.6045 14.2734C93.9587 13.6484 93.6357 12.901 93.6357 12.0312ZM95.1982 12.0312C95.1982 12.6302 95.3597 13.0703 95.6826 13.3516C96.0107 13.6276 96.4092 13.7656 96.8779 13.7656C97.3467 13.7656 97.7425 13.6276 98.0654 13.3516C98.3936 13.0703 98.5576 12.6302 98.5576 12.0312V9.375C98.5576 8.77604 98.3936 8.33854 98.0654 8.0625C97.7425 7.78125 97.3467 7.64062 96.8779 7.64062C96.4092 7.64062 96.0107 7.78125 95.6826 8.0625C95.3597 8.33854 95.1982 8.77604 95.1982 9.375V12.0312Z" fill="#8699DD"/>
<path d="M72.6631 34.4688C72.6631 36.0625 72.1396 37.418 71.0928 38.5352C70.0225 39.668 68.5771 40.2344 66.7568 40.2344C64.9365 40.2344 63.4912 39.668 62.4209 38.5352C61.3662 37.418 60.8389 36.1094 60.8389 34.6094L63.0654 33.5547H63.1826V34.5156C63.1826 35.4688 63.4639 36.2695 64.0264 36.918C64.7217 37.7227 65.6318 38.125 66.7568 38.125C67.874 38.125 68.7842 37.7227 69.4873 36.918C70.042 36.2852 70.3193 35.4766 70.3193 34.4922C70.3193 33.5625 70.0928 32.832 69.6396 32.3008C69.0146 31.5664 68.0537 31.1992 66.7568 31.1992C65.335 31.1992 64.1045 30.7305 63.0654 29.793C62.2842 29.0898 61.8936 28.0703 61.8936 26.7344C61.8936 25.1641 62.3779 23.9844 63.3467 23.1953C64.2686 22.4453 65.4053 22.0703 66.7568 22.0703C68.1084 22.0703 69.2451 22.4453 70.167 23.1953C71.1357 23.9844 71.6201 25.0664 71.6201 26.4414L69.3936 27.4961H69.2764V26.5586C69.2764 25.668 69.0225 25.0039 68.5146 24.5664C68.0225 24.1367 67.4365 23.9219 66.7568 23.9219C65.999 23.9219 65.3896 24.1602 64.9287 24.6367C64.4678 25.1133 64.2373 25.7539 64.2373 26.5586C64.2373 27.332 64.4131 27.9141 64.7646 28.3047C65.2334 28.8281 65.8975 29.0898 66.7568 29.0898C68.6475 29.0898 70.0928 29.5352 71.0928 30.4258C72.1396 31.3555 72.6631 32.7031 72.6631 34.4688ZM86.0342 34.8086V35.5469C86.0342 36.8359 85.5498 37.957 84.5811 38.9102C83.6748 39.793 82.5381 40.2344 81.1709 40.2344C79.8193 40.2344 78.6826 39.793 77.7607 38.9102C76.792 37.9727 76.3076 36.8516 76.3076 35.5469V31.5625C76.3076 30.2734 76.792 29.1523 77.7607 28.1992C78.667 27.3164 79.8037 26.875 81.1709 26.875C82.499 26.875 83.6357 27.3164 84.5811 28.1992C85.5498 29.1055 86.0342 30.1133 86.0342 31.2227V31.2461L78.8857 36.8477C79.0029 37.1133 79.167 37.3359 79.3779 37.5156C79.8701 37.9375 80.4678 38.1484 81.1709 38.1484C81.874 38.1484 82.4678 37.9375 82.9521 37.5156C83.4443 37.0938 83.6904 36.543 83.6904 35.8633L85.917 34.8086H86.0342ZM78.6514 34.4805L83.5498 30.5078C83.4248 30.125 83.2295 29.8203 82.9639 29.5938C82.4717 29.1719 81.874 28.9609 81.1709 28.9609C80.4678 28.9609 79.8701 29.1719 79.3779 29.5938C78.8936 30.0078 78.6514 30.6641 78.6514 31.5625V34.4805ZM90.1357 40.4688V22.8906L92.3623 21.8359H92.4795V39.4141L90.2529 40.4688H90.1357ZM106.308 34.8086V35.5469C106.308 36.8359 105.823 37.957 104.854 38.9102C103.948 39.793 102.812 40.2344 101.444 40.2344C100.093 40.2344 98.9561 39.793 98.0342 38.9102C97.0654 37.9727 96.5811 36.8516 96.5811 35.5469V31.5625C96.5811 30.2734 97.0654 29.1523 98.0342 28.1992C98.9404 27.3164 100.077 26.875 101.444 26.875C102.772 26.875 103.909 27.3164 104.854 28.1992C105.823 29.1055 106.308 30.1133 106.308 31.2227V31.2461L99.1592 36.8477C99.2764 37.1133 99.4404 37.3359 99.6514 37.5156C100.144 37.9375 100.741 38.1484 101.444 38.1484C102.147 38.1484 102.741 37.9375 103.226 37.5156C103.718 37.0938 103.964 36.543 103.964 35.8633L106.19 34.8086H106.308ZM98.9248 34.4805L103.823 30.5078C103.698 30.125 103.503 29.8203 103.237 29.5938C102.745 29.1719 102.147 28.9609 101.444 28.9609C100.741 28.9609 100.144 29.1719 99.6514 29.5938C99.167 30.0078 98.9248 30.6641 98.9248 31.5625V34.4805ZM109.823 40.4688V31.5625C109.823 30.2734 110.308 29.1523 111.276 28.1992C112.183 27.3164 113.319 26.875 114.687 26.875H116.269V26.9922L115.331 28.9609H114.687C113.983 28.9609 113.386 29.1719 112.894 29.5938C112.409 30.0078 112.167 30.6641 112.167 31.5625C112.167 31.5625 112.167 34.1797 112.167 39.4141L109.94 40.4688H109.823ZM127.167 39.4141L124.94 40.4688H124.823V39.2383C124.198 39.9023 123.358 40.2344 122.304 40.2344C120.843 40.2344 119.706 39.793 118.894 38.9102C118.081 38.0273 117.675 36.9844 117.675 35.7812C117.675 34.5312 118.116 33.4688 118.999 32.5938C119.851 31.75 120.952 31.3281 122.304 31.3281C123.265 31.3281 124.104 31.6602 124.823 32.3242C124.823 30.9414 124.581 30.0312 124.097 29.5938C123.628 29.1719 123.03 28.9609 122.304 28.9609H119.456V28.8438L120.394 26.875H122.304C123.671 26.875 124.808 27.3164 125.714 28.1992C126.683 29.1445 127.167 30.2656 127.167 31.5625V39.4141ZM119.972 35.7812C119.972 36.4766 120.183 37.0508 120.604 37.5039C121.011 37.9414 121.581 38.1602 122.315 38.1602C123.081 38.1602 123.675 37.9375 124.097 37.4922C124.565 36.9922 124.8 36.4297 124.8 35.8047C124.8 35.1016 124.558 34.5312 124.073 34.0938C123.589 33.6562 123.007 33.4375 122.327 33.4375C121.616 33.4375 121.046 33.668 120.616 34.1289C120.187 34.5898 119.972 35.1406 119.972 35.7812ZM140.644 40.4688V27.9297C140.644 26.2422 141.171 24.8555 142.226 23.7695C143.335 22.6367 144.78 22.0703 146.562 22.0703C148.319 22.0703 149.765 22.6367 150.897 23.7695C151.952 24.8164 152.479 26.2031 152.479 27.9297V39.4141L150.253 40.4688H150.136V27.9297C150.136 26.8828 149.854 26.0352 149.292 25.3867C148.597 24.582 147.687 24.1797 146.562 24.1797C145.437 24.1797 144.526 24.582 143.831 25.3867C143.269 26.0352 142.987 26.8828 142.987 27.9297V39.4141L140.761 40.4688H140.644ZM166.308 34.8086V35.5469C166.308 36.8359 165.823 37.957 164.854 38.9102C163.948 39.793 162.812 40.2344 161.444 40.2344C160.093 40.2344 158.956 39.793 158.034 38.9102C157.065 37.9727 156.581 36.8516 156.581 35.5469V31.5625C156.581 30.2734 157.065 29.1523 158.034 28.1992C158.94 27.3164 160.077 26.875 161.444 26.875C162.772 26.875 163.909 27.3164 164.854 28.1992C165.823 29.1055 166.308 30.1133 166.308 31.2227V31.2461L159.159 36.8477C159.276 37.1133 159.44 37.3359 159.651 37.5156C160.144 37.9375 160.741 38.1484 161.444 38.1484C162.147 38.1484 162.741 37.9375 163.226 37.5156C163.718 37.0938 163.964 36.543 163.964 35.8633L166.19 34.8086H166.308ZM158.925 34.4805L163.823 30.5078C163.698 30.125 163.503 29.8203 163.237 29.5938C162.745 29.1719 162.147 28.9609 161.444 28.9609C160.741 28.9609 160.144 29.1719 159.651 29.5938C159.167 30.0078 158.925 30.6641 158.925 31.5625V34.4805ZM172.167 35.5469C172.167 36.4453 172.409 37.1055 172.894 37.5273C173.386 37.9414 173.983 38.1484 174.687 38.1484C175.39 38.1484 175.983 37.9414 176.468 37.5273C176.96 37.1055 177.206 36.4453 177.206 35.5469V31.5625C177.206 30.6641 176.96 30.0078 176.468 29.5938C175.983 29.1719 175.39 28.9609 174.687 28.9609C173.983 28.9609 173.386 29.1719 172.894 29.5938C172.409 30.0078 172.167 30.6641 172.167 31.5625V35.5469ZM169.823 35.5469V31.5625C169.823 30.2734 170.308 29.1523 171.276 28.1992C172.183 27.3164 173.319 26.875 174.687 26.875C176.054 26.875 177.19 27.3164 178.097 28.1992C179.065 29.1445 179.55 30.2656 179.55 31.5625V40.3516C179.55 41.6406 179.065 42.7617 178.097 43.7148C177.19 44.5977 176.054 45.0391 174.687 45.0391H171.077V44.9219L172.015 42.9531H174.687C175.39 42.9531 175.983 42.7422 176.468 42.3203C176.96 41.9062 177.206 41.25 177.206 40.3516V39.2383C176.612 39.9023 175.772 40.2344 174.687 40.2344C173.335 40.2344 172.198 39.793 171.276 38.9102C170.308 37.9727 169.823 36.8516 169.823 35.5469ZM193.144 34.8086V35.5469C193.144 36.8359 192.659 37.957 191.69 38.9102C190.784 39.793 189.647 40.2344 188.28 40.2344C186.929 40.2344 185.792 39.793 184.87 38.9102C183.901 37.9727 183.417 36.8516 183.417 35.5469V31.5625C183.417 30.2734 183.901 29.1523 184.87 28.1992C185.776 27.3164 186.913 26.875 188.28 26.875C189.608 26.875 190.745 27.3164 191.69 28.1992C192.659 29.1055 193.144 30.1133 193.144 31.2227V31.2461L185.995 36.8477C186.112 37.1133 186.276 37.3359 186.487 37.5156C186.979 37.9375 187.577 38.1484 188.28 38.1484C188.983 38.1484 189.577 37.9375 190.062 37.5156C190.554 37.0938 190.8 36.543 190.8 35.8633L193.026 34.8086H193.144ZM185.761 34.4805L190.659 30.5078C190.534 30.125 190.339 29.8203 190.073 29.5938C189.581 29.1719 188.983 28.9609 188.28 28.9609C187.577 28.9609 186.979 29.1719 186.487 29.5938C186.003 30.0078 185.761 30.6641 185.761 31.5625V34.4805ZM196.659 40.4688V31.5625C196.659 30.2734 197.144 29.1523 198.112 28.1992C199.019 27.3164 200.155 26.875 201.522 26.875H203.104V26.9922L202.167 28.9609H201.522C200.819 28.9609 200.222 29.1719 199.729 29.5938C199.245 30.0078 199.003 30.6641 199.003 31.5625C199.003 31.5625 199.003 34.1797 199.003 39.4141L196.776 40.4688H196.659ZM205.858 24.5195C205.585 24.2383 205.448 23.9023 205.448 23.5117C205.448 23.1133 205.585 22.7734 205.858 22.4922C206.132 22.2109 206.464 22.0703 206.854 22.0703C207.245 22.0703 207.577 22.2109 207.851 22.4922C208.124 22.7734 208.261 23.1133 208.261 23.5117C208.261 23.9023 208.124 24.2383 207.851 24.5195C207.577 24.8008 207.245 24.9414 206.854 24.9414C206.464 24.9414 206.132 24.8008 205.858 24.5195ZM205.683 40.4688V27.6953L207.909 26.6406H208.026V39.4141L205.8 40.4688H205.683Z" fill="#8699DD"/>
</svg>
